<svg id="Layer_1" data-name="Layer 1" xmlns="http://www.w3.org/2000/svg" viewBox="0 0 623.13 32.33"><defs><style>.cls-1,.cls-2{fill:#ce162b;}.cls-2{stroke:#ce162b;stroke-width:0.02px;}.cls-3{fill:#ffd444;}.cls-4{fill:#ffd650;}.cls-5{fill:#ffd85c;}.cls-6{fill:#ffda67;}.cls-7{fill:#ffdc72;}.cls-8{fill:#ffde7c;}.cls-9{fill:#ffe086;}.cls-10{fill:#ffe390;}.cls-11{fill:#ffe599;}.cls-12{fill:#ffe7a2;}.cls-13{fill:#ffe9ab;}.cls-14{fill:#ffebb4;}.cls-15{fill:#ffedbd;}.cls-16{fill:#ffefc5;}.cls-17{fill:#fff2ce;}.cls-18{fill:#fff4d6;}.cls-19{fill:#fff6de;}.cls-20{fill:#fff8e6;}.cls-21{fill:#fffaed;}.cls-22{fill:#fffcf5;}.cls-23{fill:#fffefd;}.cls-24{fill:#fff;}.cls-25{fill:none;}</style></defs><title>DWB_KKL_english_</title><rect class="cls-1" x="560.13" y="26.28" width="63" height="0.57"/><path class="cls-2" d="M519.09,17.79c20-17.43,37,.34,27.15,13.78a8.4,8.4,0,0,1-2.34,2.28c4.76-2.46,9.26-13.85,2-22,12.41,9.95,4.41,20.67,4,20.61a9.61,9.61,0,0,0,2.36-2.86C548.24,39.71,540,43.37,530.86,39.75c2.55,1.93,6.51,2.43,10.31,2.89C524.63,45,517.64,27.94,524.23,21.46c-3.14,3-4,5.1-5.07,9.11-0.76-5.6,4.66-13,11.12-15.06,7.09-2.35,12.77,1.09,14.23,5-2-7.29-11.82-8.82-22.47-2.38,1.63-2.19,7-4.85,9.83-4.91C530.46,12.81,524.73,14.12,519.09,17.79Z" transform="translate(0 -10.53)"/><circle class="cls-3" cx="536.03" cy="14.95" r="5.7"/><circle class="cls-4" cx="536.03" cy="14.95" r="5.54"/><circle class="cls-5" cx="536.03" cy="14.95" r="5.38"/><circle class="cls-6" cx="536.03" cy="14.95" r="5.22"/><circle class="cls-7" cx="536.03" cy="14.95" r="5.06"/><circle class="cls-8" cx="536.03" cy="14.95" r="4.9"/><circle class="cls-9" cx="536.03" cy="14.95" r="4.74"/><circle class="cls-10" cx="536.03" cy="14.95" r="4.58"/><circle class="cls-11" cx="536.03" cy="14.95" r="4.42"/><circle class="cls-12" cx="536.03" cy="14.95" r="4.26"/><circle class="cls-13" cx="536.03" cy="14.95" r="4.1"/><circle class="cls-14" cx="536.03" cy="14.95" r="3.94"/><circle class="cls-15" cx="536.03" cy="14.95" r="3.78"/><circle class="cls-16" cx="536.03" cy="14.95" r="3.62"/><circle class="cls-17" cx="536.03" cy="14.95" r="3.46"/><circle class="cls-18" cx="536.03" cy="14.95" r="3.3"/><circle class="cls-19" cx="536.03" cy="14.95" r="3.14"/><circle class="cls-20" cx="536.03" cy="14.95" r="2.98"/><circle class="cls-21" cx="536.03" cy="14.95" r="2.82"/><circle class="cls-22" cx="536.03" cy="14.95" r="2.66"/><circle class="cls-23" cx="536.03" cy="14.95" r="2.5"/><path class="cls-24" d="M530.47,33.25a7.14,7.14,0,0,0,3.73,2.05,8.44,8.44,0,0,0,1.78.17l0.72,0a8.75,8.75,0,0,0,2.08-.4A7.3,7.3,0,0,0,540.91,34a7.11,7.11,0,0,0,.81-0.71,7.54,7.54,0,0,0,1-1.21,8.15,8.15,0,0,0,1.11-2.64,4.67,4.67,0,0,0,0-2.54,2.14,2.14,0,0,0-.09-0.21c-0.1-.18-0.13,0-0.43.79-0.09.21-.18,0.43-0.29,0.64A8,8,0,0,1,540.35,31a7.67,7.67,0,0,1-4.26,1.32,8,8,0,0,1-2.65-.39,6.75,6.75,0,0,1-3.06-2.12,11.15,11.15,0,0,1-1.79-3.17s0-.5-0.31.34a4.25,4.25,0,0,0,0,1.92,8.67,8.67,0,0,0,1.14,3,8.12,8.12,0,0,0,1.06,1.38h0Z" transform="translate(0 -10.53)"/><circle class="cls-25" cx="536.03" cy="14.95" r="6.01"/><circle class="cls-22" cx="536.03" cy="14.95" r="2.73"/><path class="cls-1" d="M534.08,24h3.57s-0.24,5.29-.3,5.48-0.19.31-.24,0c-0.34-2,.28-5-0.51-5h-0.35c-0.3,0-.31,1.9-0.41,2.21s-0.15.14-.2,0c-0.16-.28,0-2.25-0.4-2.25h-0.31c-0.16,0-.53,1.26-0.89,1.46s-0.37.1-.19-0.13a2.46,2.46,0,0,0,.4-1.33h-0.39A0.73,0.73,0,0,1,534.08,24Z" transform="translate(0 -10.53)"/><rect class="cls-1" y="25.91" width="437.59" height="0.57"/><path class="cls-1" d="M384.22,19.51a14,14,0,0,1,2-.15,4.25,4.25,0,0,1,3,.92,3.38,3.38,0,0,1,1.06,2.66,4,4,0,0,1-1.07,2.88A4.62,4.62,0,0,1,386,26.89a13.41,13.41,0,0,1-1.75-.09V19.51Zm1,6.57a6.23,6.23,0,0,0,1,0A2.85,2.85,0,0,0,389.31,23c0-1.75-1-2.86-3-2.86a5.42,5.42,0,0,0-1.12.1v5.86Z" transform="translate(0 -10.53)"/><path class="cls-1" d="M392.54,19.41v7.41h-1V19.41h1Z" transform="translate(0 -10.53)"/><path class="cls-1" d="M395.3,24.49l-0.77,2.33h-1l2.52-7.41h1.16l2.53,7.41h-1l-0.79-2.33H395.3Zm2.43-.75L397,21.61c-0.15-.48-0.26-0.92-0.37-1.35h0c-0.1.43-.22,0.89-0.36,1.34l-0.73,2.15h2.23Z" transform="translate(0 -10.53)"/><path class="cls-1" d="M407.12,23.57c-0.05-1-.12-2.29-0.12-3.2h0c-0.26.86-.56,1.8-0.94,2.82l-1.31,3.6H404l-1.21-3.53c-0.35-1-.64-2-0.85-2.88h0c0,0.92-.08,2.17-0.14,3.28l-0.2,3.18h-0.91l0.52-7.41h1.22L403.67,23c0.31,0.91.55,1.74,0.75,2.51h0c0.2-.75.46-1.57,0.79-2.51l1.32-3.59h1.22l0.46,7.41h-0.95Z" transform="translate(0 -10.53)"/><path class="cls-1" d="M412.61,26.94c-2,0-3.33-1.52-3.33-3.76s1.45-3.89,3.43-3.89S416,20.84,416,23c0,2.54-1.55,3.91-3.43,3.91h0Zm0.06-.78c1.52,0,2.38-1.4,2.38-3.08,0-1.47-.77-3-2.37-3s-2.39,1.48-2.39,3.09,0.86,3,2.37,3h0Z" transform="translate(0 -10.53)"/><path class="cls-1" d="M417.29,26.82V19.41h1.06l2.37,3.75A20.76,20.76,0,0,1,422,25.57h0c-0.09-1-.11-1.89-0.11-3V19.41h0.9v7.41h-1l-2.35-3.76a21.52,21.52,0,0,1-1.37-2.47h0c0.05,0.93.07,1.83,0.07,3.06v3.17h-0.9Z" transform="translate(0 -10.53)"/><path class="cls-1" d="M424.52,19.51a14,14,0,0,1,2-.15,4.25,4.25,0,0,1,3,.92,3.38,3.38,0,0,1,1.06,2.66,4,4,0,0,1-1.07,2.88,4.62,4.62,0,0,1-3.29,1.07,13.41,13.41,0,0,1-1.75-.09V19.51Zm1,6.57a6.23,6.23,0,0,0,1,0A2.85,2.85,0,0,0,429.61,23c0-1.75-1-2.86-3-2.86a5.42,5.42,0,0,0-1.12.1v5.86Z" transform="translate(0 -10.53)"/><path class="cls-1" d="M435.4,26.82l-1.88-7.41h1l0.88,3.75c0.22,0.94.42,1.85,0.55,2.56h0c0.12-.74.35-1.62,0.61-2.57l1-3.74h1l0.9,3.76c0.21,0.89.41,1.76,0.52,2.54h0c0.15-.81.36-1.64,0.59-2.56l1-3.74h1l-2.1,7.41h-1L438.53,23a23,23,0,0,1-.48-2.43h0a20.09,20.09,0,0,1-.57,2.42l-1.06,3.86h-1Z" transform="translate(0 -10.53)"/><path class="cls-1" d="M444.69,24.49l-0.77,2.33h-1l2.52-7.41h1.16l2.53,7.41h-1l-0.79-2.33h-2.63Zm2.43-.75-0.74-2.13c-0.15-.48-0.26-0.92-0.37-1.35h0c-0.1.43-.22,0.89-0.36,1.34l-0.73,2.15h2.23Z" transform="translate(0 -10.53)"/><path class="cls-1" d="M451.88,26.82V23.67l-2.35-4.27h1.1l1,2c0.27,0.56.51,1,.74,1.53h0c0.2-.48.46-1,0.75-1.53l1.07-2h1.08l-2.47,4.26v3.16h-1Z" transform="translate(0 -10.53)"/><path class="cls-1" d="M458.51,19.52a8.45,8.45,0,0,1,1.75-.16,3,3,0,0,1,2,.54,1.56,1.56,0,0,1,.63,1.31,1.75,1.75,0,0,1-1.25,1.63v0a1.89,1.89,0,0,1,1.53,1.85,2,2,0,0,1-.64,1.48,3.67,3.67,0,0,1-2.55.69,11.22,11.22,0,0,1-1.49-.09V19.52Zm1,3h0.87a1.37,1.37,0,0,0,1.59-1.25c0-.86-0.65-1.21-1.62-1.21a4.13,4.13,0,0,0-.85.07v2.4Zm0,3.54a5.18,5.18,0,0,0,.8,0c1,0,1.9-.36,1.9-1.44s-0.87-1.43-1.91-1.43h-0.79v2.83Z" transform="translate(0 -10.53)"/><path class="cls-1" d="M465.43,19.41v4.4c0,1.65.74,2.35,1.73,2.35s1.8-.73,1.8-2.35v-4.4h1v4.33c0,2.28-1.2,3.2-2.8,3.2s-2.66-.86-2.66-3.17V19.41h1Z" transform="translate(0 -10.53)"/><path class="cls-1" d="M471.58,19.51a14,14,0,0,1,2-.15,4.25,4.25,0,0,1,3,.92,3.38,3.38,0,0,1,1.06,2.66,4,4,0,0,1-1.07,2.88,4.62,4.62,0,0,1-3.29,1.07,13.42,13.42,0,0,1-1.75-.09V19.51Zm1,6.57a6.23,6.23,0,0,0,1,0A2.85,2.85,0,0,0,476.67,23c0-1.75-1-2.86-3-2.86a5.42,5.42,0,0,0-1.12.1v5.86Z" transform="translate(0 -10.53)"/><path class="cls-1" d="M478.9,19.51a14,14,0,0,1,2-.15,4.25,4.25,0,0,1,3,.92A3.38,3.38,0,0,1,485,22.94a4,4,0,0,1-1.07,2.88,4.62,4.62,0,0,1-3.29,1.07,13.42,13.42,0,0,1-1.75-.09V19.51Zm1,6.57a6.23,6.23,0,0,0,1,0A2.85,2.85,0,0,0,484,23c0-1.75-1-2.86-3-2.86a5.42,5.42,0,0,0-1.12.1v5.86Z" transform="translate(0 -10.53)"/><path class="cls-1" d="M487.2,19.41v3.1h3.59v-3.1h1v7.41h-1V23.34H487.2v3.48h-1V19.41h1Z" transform="translate(0 -10.53)"/><path class="cls-1" d="M494.37,19.41v7.41h-1V19.41h1Z" transform="translate(0 -10.53)"/><path class="cls-1" d="M495.92,25.65a3.34,3.34,0,0,0,1.71.47,1.32,1.32,0,0,0,1.55-1.25c0-.69-0.4-1.1-1.4-1.47-1.21-.42-2-1.06-2-2.09a2.13,2.13,0,0,1,2.4-2,3.46,3.46,0,0,1,1.63.35l-0.26.79a2.74,2.74,0,0,0-1.4-.35,1.2,1.2,0,0,0-1.4,1.11c0,0.68.45,1,1.47,1.42,1.25,0.5,1.88,1.09,1.88,2.18s-0.84,2.13-2.58,2.13a3.83,3.83,0,0,1-1.89-.48Z" transform="translate(0 -10.53)"/><path class="cls-1" d="M507.71,23.57c-0.05-1-.12-2.29-0.12-3.2h0c-0.26.86-.56,1.8-0.94,2.82l-1.31,3.6H504.6l-1.21-3.53c-0.35-1-.64-2-0.85-2.88h0c0,0.92-.08,2.17-0.14,3.28l-0.2,3.18h-0.91l0.52-7.41H503L504.27,23c0.31,0.91.55,1.74,0.75,2.51h0c0.2-.75.46-1.57,0.79-2.51l1.32-3.59h1.22l0.46,7.41h-0.95Z" transform="translate(0 -10.53)"/><path class="cls-1" d="M442.34,32.7h0.57v2.11h0c0.12-.17.23-0.33,0.34-0.47l1.34-1.64h0.7l-1.59,1.86,1.71,2.52h-0.67l-1.44-2.15-0.42.48v1.67h-0.57V32.7Z" transform="translate(0 -10.53)"/><path class="cls-1" d="M446.89,35.7l-0.45,1.38h-0.58l1.49-4.38H448l1.5,4.38h-0.6l-0.47-1.38h-1.55Zm1.44-.44L447.9,34c-0.09-.29-0.16-0.55-0.22-0.8h0c-0.06.25-.13,0.53-0.21,0.79L447,35.26h1.32Z" transform="translate(0 -10.53)"/><path class="cls-1" d="M450.24,32.76a5.89,5.89,0,0,1,1.08-.1,1.81,1.81,0,0,1,1.27.36,1.09,1.09,0,0,1,.34.83,1.16,1.16,0,0,1-.83,1.11v0a1.12,1.12,0,0,1,.64.88,7.84,7.84,0,0,0,.33,1.2H452.5a5.49,5.49,0,0,1-.29-1,0.86,0.86,0,0,0-.88-0.85H450.8v1.9h-0.57V32.76Zm0.57,2h0.58a0.86,0.86,0,0,0,1-.83,0.84,0.84,0,0,0-1-.81,2.35,2.35,0,0,0-.56.05v1.59Z" transform="translate(0 -10.53)"/><path class="cls-1" d="M457.55,35.16c0-.6-0.07-1.35-0.07-1.89h0c-0.16.51-.33,1.07-0.55,1.66l-0.77,2.13h-0.43L455,35c-0.21-.62-0.38-1.18-0.5-1.7h0c0,0.54,0,1.28-.08,1.94l-0.12,1.88h-0.54l0.31-4.38h0.72l0.75,2.12c0.18,0.54.33,1,.44,1.48h0c0.12-.44.27-0.93,0.47-1.48l0.78-2.12h0.72l0.27,4.38h-0.56Z" transform="translate(0 -10.53)"/><path class="cls-1" d="M459.93,35.7l-0.46,1.38h-0.58l1.49-4.38h0.68l1.49,4.38h-0.6l-0.47-1.38h-1.55Zm1.44-.44L460.93,34c-0.09-.29-0.16-0.55-0.22-0.8h0c-0.06.25-.13,0.53-0.21,0.79L460,35.26h1.32Z" transform="translate(0 -10.53)"/><path class="cls-1" d="M464.58,32.7h0.57v2.11h0c0.12-.17.23-0.33,0.34-0.47l1.34-1.64h0.7L466,34.56l1.71,2.52H467l-1.44-2.15-0.42.48v1.67h-0.57V32.7Z" transform="translate(0 -10.53)"/><path class="cls-1" d="M469.12,35.7l-0.46,1.38h-0.58l1.49-4.38h0.68l1.49,4.38h-0.6l-0.47-1.38h-1.55Zm1.44-.44L470.13,34c-0.09-.29-0.16-0.55-0.22-0.8h0c-0.06.25-.13,0.53-0.21,0.79l-0.43,1.27h1.32Z" transform="translate(0 -10.53)"/><path class="cls-1" d="M475.74,36.89a4,4,0,0,1-1.35.24,2.06,2.06,0,0,1-2.25-2.21,2.19,2.19,0,0,1,2.37-2.26,2.75,2.75,0,0,1,1.1.2l-0.14.46a2.19,2.19,0,0,0-1-.19,1.64,1.64,0,0,0-1.76,1.76,1.6,1.6,0,0,0,1.69,1.77,1.85,1.85,0,0,0,.75-0.12V35.23h-0.88V34.78h1.44v2.11Z" transform="translate(0 -10.53)"/><path class="cls-1" d="M477.66,37.08V35.22l-1.39-2.52h0.65l0.62,1.21c0.16,0.33.3,0.6,0.44,0.9h0c0.12-.29.27-0.57,0.44-0.9l0.63-1.21h0.64l-1.46,2.52v1.87h-0.57Z" transform="translate(0 -10.53)"/><path class="cls-1" d="M480.91,32.7v2.6c0,1,.44,1.39,1,1.39S483,36.26,483,35.3V32.7h0.57v2.56a1.61,1.61,0,0,1-1.66,1.89c-0.9,0-1.57-.51-1.57-1.87V32.7h0.57Z" transform="translate(0 -10.53)"/><path class="cls-1" d="M485.92,32.7h0.57v3.91h1.87v0.47h-2.44V32.7Z" transform="translate(0 -10.53)"/><path class="cls-1" d="M489.64,32.7v4.38h-0.57V32.7h0.57Z" transform="translate(0 -10.53)"/><path class="cls-1" d="M490.74,37.08V32.7h0.62l1.4,2.22a12.37,12.37,0,0,1,.78,1.42h0c-0.05-.58-0.07-1.12-0.07-1.79V32.7H494v4.38h-0.57l-1.39-2.22a12.59,12.59,0,0,1-.81-1.46h0c0,0.55,0,1.08,0,1.81v1.87h-0.53Z" transform="translate(0 -10.53)"/><path class="cls-1" d="M497.39,35h-1.7v1.58h1.9v0.47h-2.47V32.7h2.37v0.47h-1.8v1.38h1.7V35Z" transform="translate(0 -10.53)"/><path class="cls-1" d="M499.21,35.7l-0.45,1.38h-0.59l1.49-4.38h0.68l1.5,4.38h-0.6l-0.47-1.38h-1.55Zm1.44-.44L500.22,34c-0.09-.29-0.16-0.55-0.22-0.8h0c-0.06.25-.13,0.53-0.21,0.79l-0.43,1.27h1.32Z" transform="translate(0 -10.53)"/><path class="cls-1" d="M505.77,36.89a4,4,0,0,1-1.35.24,2.06,2.06,0,0,1-2.25-2.21,2.19,2.19,0,0,1,2.37-2.26,2.75,2.75,0,0,1,1.1.2l-0.14.46a2.19,2.19,0,0,0-1-.19,1.64,1.64,0,0,0-1.76,1.76,1.6,1.6,0,0,0,1.69,1.77,1.86,1.86,0,0,0,.75-0.12V35.23h-0.88V34.78h1.44v2.11Z" transform="translate(0 -10.53)"/><path class="cls-1" d="M509,35h-1.7v1.58h1.9v0.47h-2.47V32.7h2.37v0.47h-1.8v1.38H509V35Z" transform="translate(0 -10.53)"/></svg>